# xmcd CD database file
#
# Track frame offsets:
#	150
#	34660
#	65555
#	77210
#	107222
#	121817
#	151772
#	158775
#	185750
#
# Disc length: 2674 seconds
#
# Revision: 0
# Processed by: cddbd v1.5.2PL0 Copyright (c) Steve Scherf et al.
# Submitted via: CDex 1.70beta2
#
DISCID=6f0a7009
DTITLE=Haruko Nara - My Favorite Things
DYEAR=1989
DGENRE=Jazz
TTITLE0=Yume
TTITLE1=93 Degrees
TTITLE2=My Favorite Things
TTITLE3=Luvell
TTITLE4=My Romance
TTITLE5=Remember
TTITLE6=Kangero
TTITLE7=Antipasta
TTITLE8=How Long Has This Been Going On
EXTD=YEAR: 1989
EXTT0=
EXTT1=
EXTT2=
EXTT3=
EXTT4=
EXTT5=
EXTT6=
EXTT7=
EXTT8=
PLAYORDER=
